<?xml version="1.0" encoding="UTF-8"?>
<svg id="Layer_1" data-name="Layer 1" xmlns="http://www.w3.org/2000/svg" viewBox="0 0 801.72 697.91">
  <defs>
    <style>
      .cls-1 {
        fill: none;
      }

      .cls-2 {
        fill: #443850;
      }
    </style>
  </defs>
  <g id="Generative_Object" data-name="Generative Object">
    <g>
      <path class="cls-2" d="M785.35,278.51c-2.95-1.56-6.16-.91-9.13.37l-8.3,3.58,17.4-40.37c1.23-2.86.31-5.7-2.27-7.56-2.3-1.65-5.92-1.97-8.82-.69l-8.57,3.8c-.38.17-.97.6-1.55.42-.65-.21.1-.75.24-1.09l12.72-30.83,3.37-8.56c1.25-3.18.31-6.06-2.68-7.98-2.78-1.78-6.18-1.62-9.55-.17l-11.75,5.05c-.32.14-.86.54-1.36.56-.4.01,0-.46.42-1.31l17.6-35.74c2.06-4.19.23-8.84-5.51-10.06-2.14-.45-4.32.5-6.06,1.44l-17.3,9.43-1.13.67c-.31.19-.71.27-.82-.17-.09-.33.33-.64.45-.87l8.58-17.06,11.13-24.26c.89-1.93,1.64-3.52.92-5.67-1.03-3.1-5.39-6.62-9.58-4.93-11.44,4.62-21.41,11.54-31.84,16.9l2.29-32.84c.17-2.37-2.49-4.35-4.21-5.24-2.31-1.21-6.36-1.6-8.12.3l-17.31,18.66-8.66,9.72c-.26.29-.54.66-.69.97-.12.25-.98.33-1.12.03-.07-.15.13-.58.13-.89v-2.38s-.13-13.8-.13-13.8l-.25-7.88-.16-.84c-.46-2.41-2.95-4.18-5.34-4.77-2.85-.71-5.86.03-7.86,1.96l-25.54,24.65c-.5.48-.99,1.41-1.6.97-.42-.31-.73-.91-.96-1.4l-9.91-20.86c-1.36-2.86-3.43-4.88-7.01-5.38-3.18-.45-6.55,1.09-8.38,3.62l-14.48,20.03c-.25.54-.54.83-.94.55-.26-.18-.34-.51-.42-.83l-.56-2.04-.23-.78-4.94-17.63-3.18-9.73c-.92-2.8-4.29-4.58-7.56-4.55-3.29.04-5.98,1.97-7.85,4.42l-16.74,22-1.64-12.08-2.29-14.94c-.43-2.83-3-4.8-5.8-5.38-3.05-.64-6.18.31-8.22,2.36l-10.76,10.79-14.65,15c-.5.51-1.39.9-1.5.54l-.42-1.29-6.97-12.02c-1.42-2.45-4.39-4.13-7.14-4.19-3.09-.07-5.43,1.47-7.25,3.59l-5.96,6.92c-.36.42-.75.27-.82.04l-.28-1-2.11-15.95c-.4-3.01-3.27-5.26-6.45-5.85-3.45-.65-7.06.86-8.94,3.39l-14.5,19.5-2.25-21.01c-.35-3.26-2.52-5.9-6-6.78-3.49-.89-7.66.49-9.42,3.39l-10.13,16.76-.64,1.16c-.26.47-.87.13-.87-.51l-1.53-8.61c-.54-3.03-4.1-5.1-7.39-5.15-3.4-.05-7.09,1.38-8.02,4.22l-1.26,3.85c-2.8,3.95-8.72,6.8-8.9,6.14-.15-.53.18-1.08.25-1.44l3.26-18.99c1.55-14.98-.96-29.73-6.25-43.98-1.01-2.72-3.34-4.57-6.31-5.02-2.93-.45-5.71.54-7.53,2.83l-23.53,29.5c-16.54-.61-29.67,2.88-43.92,9.73-.59.28-1.3.83-1.62.06-7.42-17.88-25.09-32.08-44.94-40.71-2.76-1.2-5.54-1.06-8.2.3-19.8,14.02-40.76,31.75-40.05,54.45l-49.16-2.14c-9.2-.4-17.61,1.16-25.92,4.17l-29.85,10.79c-29.95,10.82-60.23,1.56-71.74,15.03l-10.12,11.84-6.59,8.31c-3.22,4.06-4.3,8.32-2.23,12.87l7.65,16.82,8.91,19.71c6.44,11.97,18.52,15.95,34,15.84l30.07-.21-12.21,18.45-33.46,46.15c-1.61,2.21-2.02,4.29-1.39,6.82,3.39,13.66,4.93,27.15,3.83,41.18l-3.8,48.72c-.98,12.56-.64,24.27,1.83,36.67,2.94,14.77,8.33,28.44,16.16,41.91l15.57,24.08,9.8,15.6c2.04,4.26,5.41,9.63,4.74,14.41l-9.13,36.54-7.65,30.18-6.79,22.58-14.54,39.63-10.65,27.16c-.92,2.36-.98,4.61.63,6.66,1.3,1.67,3.7,3.1,6.74,3.21l44.74,1.53c5.18.18,9.02-3.45,8.92-7.64l3.03-31.01,18.13-47.11,10.83-35.91,9.04-25.58c3.01-6.9,6.54-13.19,11.06-19.49.17-.24.15-.91.64-1.02.18-.04.46.23.67.52,8.59,11.92,14.15,24.77,14.88,38.77.58,10.94,2.16,21.15,6.18,31.59l16.83,43.67,8.51,21.64,22.7,58.99c1.46,3.79,5.88,5.24,10.31,5.01l42.2-2.17c5.86-.3,9.53-3.06,10.4-7.75,1.99-10.71,3.93-21.19,3.79-32.14-.1-8.21-.95-15.97-3.23-23.89l-10.1-35.03-24.7-73.15-17.88-41.85c-.12-.28-.58-.61-.43-.87.46-.83,16.72,3.64,23.71,7.18,19.1,9.7,28.17,25.41,44.64,37.46l18.59,11.28c18.82,11.42,35.98,23.79,50.7,38.84l27.16,30.75,12.88,16.99c2.84,3.74,4.91,7.87,8.6,11.13l25.61,22.6,12.21,11.12c2.14,1.95,6.26,2.86,9.2,1.65l58.26-24.11c3.56-1.47,6.78-4.57,5.65-8-3.54-10.77-7.45-21.22-12.53-31.48-8.34-16.82-23.71-18.15-32.82-26.65-8.17-7.63-13.86-16.61-17.48-26.35-9.36-25.23-28.92-47.67-55.82-61.79-6.49-3.4-13.23-5.57-20.22-7.92-6.29-2.11-10.5-5.85-13.04-10.99l-7.54-15.28c9.56.47,18.47.48,27.44,2.37,12.1,2.55,22.69,8.12,31.16,15.52l14.53,12.7c9.93,9.88,18.58,20.06,26.88,30.97l26.69,35.06c4.95,6.5,9.73,12.71,16.08,18.25l17.15,14.97,41.36,37.11c2.05,1.84,4.88,2.54,7.63,2.38,2.31-.14,4.53-1.29,6.32-3.11l30.86-31.5c5.09-5.2,1.64-10.52-4.82-14.65l-26.18-16.73-28.62-17.74c-12.75-7.9-23.88-16.83-34.04-27.01-8.98-9-15.65-18.77-21.97-29.11-5.37-8.79-13.33-15.33-24.03-19.58-14.58-5.79-27.4-13.52-37.55-24.09,3.08-1.84,6.38-3.17,10.02-4.46,26.14-9.23,62.39-17.3,90.51-21.06l46.72-6.24,57.56-7.14,31.6-5.66,26.85-7.67c8.18-4.69,16.6-8.99,24.78-13.67,8.42-4.82,17.19-10.06,24.37-16.82-.37-.5-.77-1.04-1.15-1.57l-.51-.7,11.09-26.1,9.88-24.77c1.07-2.68-1.28-5.8-3.55-7ZM111.58,126.15c-1.92,1.98-6.07,1.66-8.03,0-.05-.04-.08-.08-.13-.12-8.35-4.22-10.92-12.41-9.51-20.08.09-.49.37-.98.76-1.42.94-2.68,4.47-4.8,8.21-2.95.75.37,1.41.8,2.04,1.27,10.38,2.65,13.71,16.02,6.66,23.31ZM153.1,117.98c-2.83.97-6.28-1.06-6.99-3.29-.18-.57-.23-1.12-.17-1.63-2.9-5.27-3.73-10.95-3.18-16.8.2-2.11,1.61-3.92,4.17-4.54,8.91-2.14,15.34,3.37,16.23,10.39.83,6.58-2.43,13.25-10.06,15.87Z"/>
      <path class="cls-1" d="M102.6,101.85c7.9,3.48,10.76,17.32,7.56,24.72-7.92-6.83-11.1-16.25-7.56-24.72Z"/>
      <path class="cls-1" d="M154.51,116.37c-4.32-2.68-5.9-7.14-7.3-11.33-1.51-4.53-1.73-9.27,1.22-13.34,3.62,2.59,5.27,5.77,6.08,9.29,1.14,4.93,2.19,9.88,0,15.38Z"/>
      <g>
        <path class="cls-2" d="M280.75,82.82c-5.62,2.82-12.58,1.75-17.26-1.57-7.76-5.51-9.3-17.28-8.47-25.84.66-6.73,4.95-13.95,12.4-13.98,2.59-.01,5.24,1.24,6.97,3.17l6.85,7.63,9.67,10.69c2.54,2.8,2.54,6.31.64,9.39-2.53,4.09-5.72,7.96-10.8,10.51Z"/>
        <path class="cls-2" d="M275.68,68c.73.83-.95,2.51-2.06,3.04-2.88-2.46-3.66-5.72-3.36-9.21l5.42,6.17Z"/>
      </g>
    </g>
  </g>
</svg>