<?xml version="1.0" encoding="UTF-8"?>
<svg id="Layer_1" data-name="Layer 1" xmlns="http://www.w3.org/2000/svg" viewBox="0 0 621.4 146.65">
  <defs>
    <style>
      .cls-1 {
        fill: #443850;
      }
    </style>
  </defs>
  <path class="cls-1" d="M47.21,146.89c-30.4-1.4-44.4-17.4-44.4-30.6,0-9.8,7.4-18,20.2-17.4,2.8,32,19.4,42,32.4,42,11,0,19.8-9.2,19.8-20.6,0-32.2-70.4-33.6-70.4-79C4.81,18.09,24.21,1.49,50.61,1.49s39.2,15.4,39.2,28.8c0,8.8-5.4,17-16.8,19.6h-1.2c-1.4-28.4-18.2-41.8-31.4-41.8-9,0-16.6,6.2-16.6,18.4,0,28.4,69.4,33,69.4,77,0,29-23.2,44.4-46,43.4Z"/>
  <path class="cls-1" d="M227,146.49l-76.4-110.4v35c0,41.6,2.6,60.2,13.8,71.8l-.2,1.6h-32.6l-.2-1.6c11.6-11.8,13.6-30.2,13.6-72,0-39.4-3-57.8-12-64.8l-.2-1.6h20.8c6.6.6,13,3.2,19.6,13l49.2,72.2c0-43.8.8-70.2-14-83.6v-1.6h33.2l.2,1.6c-11.8,12.8-13.8,37.4-13.8,81.2v59.2h-1Z"/>
  <path class="cls-1" d="M333.61,146.89c-28.6,0-55.4-22.4-55.4-71.4S309.01,1.49,340.01,1.49c29.2,0,57.4,22.6,57.4,70s-32.4,75.4-63.8,75.4ZM351.21,137.49c12.4,0,21.8-12,21.8-39.4,0-51.4-27.8-87-48.8-87-12.4,0-21.6,12.4-21.6,41.2,0,51.2,27.6,85.2,48.6,85.2Z"/>
  <path class="cls-1" d="M436.61,144.49l-.2-1.6c12.4-6.2,12.2-43.4,11.8-72.6s.2-55-11.8-64l.2-1.8,43.6-.2c20.4,0,41,9.4,41,32.4,0,14.6-10.4,26.2-22.2,30,18.4,2.2,33.4,16.8,33.4,39,0,26.8-17.6,39.2-45.4,39.2l-50.4-.4ZM495.01,39.09c0-14.6-6.6-29.4-22-28.8l-1,57.6c15.4-2.8,23-12.8,23-28.8ZM505.01,103.69c0-11.2-3-26.8-20.4-32-4.2.6-8.2.8-12.6.8l.6,54c.2,5.6,2,11.6,9.2,11.6,9.4,0,23.2-10.4,23.2-34.4Z"/>
  <path class="cls-1" d="M571.01,142.89c11.4-7.4,12-35.4,12-61.8v-9.2c0-36-2-59.2-12-65.8l.2-1.6h46l.2,1.6c-9.2,6.6-11.8,24.2-11.8,65.2,0,33.2.2,64.6,11.8,71.6l-.2,1.6h-46l-.2-1.6Z"/>
</svg>