<?xml version="1.0" encoding="UTF-8"?>
<svg id="Layer_1" data-name="Layer 1" xmlns="http://www.w3.org/2000/svg" viewBox="0 0 1280 359.91">
  <defs>
    <style>
      .cls-1 {
        stroke-width: 5.1px;
      }

      .cls-1, .cls-2, .cls-3 {
        fill: none;
        stroke: #453951;
        stroke-miterlimit: 10;
      }

      .cls-2 {
        stroke-width: 4.34px;
      }

      .cls-3 {
        stroke-width: 4.95px;
      }

      .cls-4 {
        fill: #453951;
      }
    </style>
  </defs>
  <path class="cls-4" d="M1264.02,345.6c-19.41.01-27.12-10.15-33.87.29-5.9,9.13-1.57-23.04-1.48-27.43l4.48-199.61c.65-28.96,1.08-55.77.25-83.88-.09-11.42.11-4.51-.19-15.84-.1-3.7-1.86-10.93,2.21-10.3,18.02,2.78,3.87,1.36,23.02,2.12,2.13.08,5.81-.06,8.7-4.04,3.77-5.2,2.37,18.69.82,26.13l-3.26,276.51c-.04,2.84.15,6.91.32,8.59.24,2.49-1.3,9.48-.65,17.38.55,6.76.81,10.06-.34,10.06"/>
  <path class="cls-3" d="M1264.02,345.6c-19.41.01-27.12-10.15-33.87.29-5.9,9.13-1.57-23.04-1.48-27.43l4.48-199.61c.65-28.96,1.08-55.77.25-83.88-.09-11.42.11-4.51-.19-15.84-.1-3.7-1.86-10.93,2.21-10.3,18.02,2.78,3.87,1.36,23.02,2.12,2.13.08,5.81-.06,8.7-4.04,3.77-5.2,2.37,18.69.82,26.13l-3.26,276.51c-.04,2.84.15,6.91.32,8.59.24,2.49-1.3,9.48-.65,17.38.55,6.76.81,10.06-.34,10.06Z"/>
  <path class="cls-4" d="M808.47,193.64c-4.07-25.47-10.03-42.49-24.01-66.07-12.69-21.38-29.94-40.48-63.01-41.41-17.55-.49-43.09,6.54-58.23,23.7-9.4,10.67-18.87,21.38-23.8,34.02-14.18,36.4-20.63,74.23-12.81,111.74,5.7,27.41,16.52,53.78,38.56,75.68,14.1,14.01,38.42,22,60.94,16.16,46.86-12.16,74.42-65.36,81.75-101.78,3.14-15.58,3.16-36.18.61-52.05M731.71,314.31c-8.04,5.67-24.54,9.73-32.24,3.89-13.48-10.21-23.63-28.24-27.72-37.13-14.15-30.72-16.16-70.1-7.66-102.02,6.32-23.72,15.78-62.4,57.12-63.65,44.57-1.36,94.6,139.6,10.51,198.91"/>
  <path class="cls-2" d="M808.47,193.64c-4.07-25.47-10.03-42.49-24.01-66.07-12.69-21.38-29.94-40.48-63.01-41.41-17.55-.49-43.09,6.54-58.23,23.7-9.4,10.67-18.87,21.38-23.8,34.02-14.18,36.4-20.63,74.23-12.81,111.74,5.7,27.41,16.52,53.78,38.56,75.68,14.1,14.01,38.42,22,60.94,16.16,46.86-12.16,74.42-65.36,81.75-101.78,3.14-15.58,3.16-36.18.61-52.05ZM731.71,314.31c-8.04,5.67-24.54,9.73-32.24,3.89-13.48-10.21-23.63-28.24-27.72-37.13-14.15-30.72-16.16-70.1-7.66-102.02,6.32-23.72,15.78-62.4,57.12-63.65,44.57-1.36,94.6,139.6,10.51,198.91Z"/>
  <path class="cls-4" d="M1095.27,206.63c-10.78-19.7-25.79-30.58-48.36-38.97,20.81-13.06,33.72-29.08,42.51-48.46,16.28-35.91,1.48-74.67-38.11-92.56-28.64-12.95-69.44-15.65-101.94-12-17.03,1.91,12.74,10.28,2.3,20.67l-.96,16.12-4.7,269.23c-.78,8.57-1.16,6.31-1.1,12.81.28,30.32,95.48,12.88,131.34-18.04,35.1-29.49,38.82-72.59,19.02-108.79M986.16,44.36c24.03-2.43,46.87.61,63.24,15.71,15.39,14.19,17.62,35.92,8.56,55.58-12.89,27.96-42.33,44.02-75.37,49.7l3.56-120.99ZM1073.87,258.5c-7.63,41.69-46.02,56.44-94.45,62.9l4.31-125.62c15.42-5.08,31.35-8.7,46.56-4.99,33.39,8.15,48.95,38.34,43.58,67.71"/>
  <path class="cls-3" d="M1095.27,206.63c-10.78-19.7-25.79-30.58-48.36-38.97,20.81-13.06,33.72-29.08,42.51-48.46,16.28-35.91,1.48-74.67-38.11-92.56-28.64-12.95-69.44-15.65-101.94-12-17.03,1.91,12.74,10.28,2.3,20.67l-.96,16.12-4.7,269.23c-.78,8.57-1.16,6.31-1.1,12.81.28,30.32,95.48,12.88,131.34-18.04,35.1-29.49,38.82-72.59,19.02-108.79ZM986.16,44.36c24.03-2.43,46.87.61,63.24,15.71,15.39,14.19,17.62,35.92,8.56,55.58-12.89,27.96-42.33,44.02-75.37,49.7l3.56-120.99ZM1073.87,258.5c-7.63,41.69-46.02,56.44-94.45,62.9l4.31-125.62c15.42-5.08,31.35-8.7,46.56-4.99,33.39,8.15,48.95,38.34,43.58,67.71Z"/>
  <path class="cls-4" d="M480.11,325.31c-4.43-33.96-1.4-68.39-4.67-124.26-1.7-29.09,1.96-55.96.85-85.26-1.06-28.08.25-77.25.08-105.58-.03-6.52-3.49,3.67-13.29,3.13-8.47-.48-22.22-9.69-23.17,6.04-2.58,42.8-.15,95.16.5,137.94l2.09,99.72-92.99-219.18c-4.13-9.66-3.57-19.76-16.18-21.29-3.61-.44-16.23-.68-20.72,2.66-2.68,2-1.77,5.75-1.76,11l.44,125.99c.09,28.91.18,60.04-.15,91.09,11.57.28,23.15.36,34.61-1.12l1.15-131.28,42.54,102.58,52.99,114.03c4.21,9.68,12.64,7.73,21.98,7,8.86-.69,16.87-4.06,15.68-13.22"/>
  <path class="cls-3" d="M480.11,325.31c-4.43-33.96-1.4-68.39-4.67-124.26-1.7-29.09,1.96-55.96.85-85.26-1.06-28.08.25-77.25.08-105.58-.03-6.52-3.49,3.67-13.29,3.13-8.47-.48-22.22-9.69-23.17,6.04-2.58,42.8-.15,95.16.5,137.94l2.09,99.72-92.99-219.18c-4.13-9.66-3.57-19.76-16.18-21.29-3.61-.44-16.23-.68-20.72,2.66-2.68,2-1.77,5.75-1.76,11l.44,125.99c.09,28.91.18,60.04-.15,91.09,11.57.28,23.15.36,34.61-1.12l1.15-131.28,42.54,102.58,52.99,114.03c4.21,9.68,12.64,7.73,21.98,7,8.86-.69,16.87-4.06,15.68-13.22Z"/>
  <path class="cls-4" d="M345.97,327.36l-.47-24.79c-.33-20.45-.02-36.62.23-53.72-11.49,1.33-23.04,1.31-34.61,1.09-.37,25.98-1.03,51.65-2.2,75.79-.45,9.3-8.65,18.15-7.36,21.7,3.13,8.61,28.1-12.93,43.11-.55,3.28,2.7.42-15.09,1.3-19.51"/>
  <path class="cls-1" d="M345.97,327.36l-.47-24.79c-.33-20.45-.02-36.62.23-53.72-11.49,1.33-23.04,1.31-34.61,1.09-.37,25.98-1.03,51.65-2.2,75.79-.45,9.3-8.65,18.15-7.36,21.7,3.13,8.61,28.1-12.93,43.11-.55,3.28,2.7.42-15.09,1.3-19.51Z"/>
  <path class="cls-4" d="M169.72,272.67c-1.37,33.95-28.31,61.4-64.49,71.61-42.96,12.14-94.83-30.31-97.33-53.1-.45-4,21.53-3.18,22.28-12.78,1.04-13.26,9.65,27.75,47.99,37.66,17.33,4.48,39.98-5.16,50.07-20.79,16.86-26.11,12.87-59.38-20.15-75.7-15.71-7.76-41.22-20.95-53.95-32.06C13.93,152.44,5.21,130.46,7.11,93.1,9.47,46.95,34.66,13.64,86.88,8.05c19.06-2.05,33.74,4.79,48.14,15.25,25.1,18.23,33.67,53.86,26.92,51.49-6.91-2.44-10.11,18.06-16.91,14.65-10.62-5.31-13.59-29.78-35.98-45.65-15.33-10.86-40.05-1.67-52.24,13.58-19.43,24.34-22.74,56.31-3.1,80.14,14.26,17.31,32.54,31.48,59.87,45.09,35.96,17.89,57.59,53.94,56.12,90.08"/>
  <path class="cls-3" d="M169.72,272.67c-1.37,33.95-28.31,61.4-64.49,71.61-42.96,12.14-94.83-30.31-97.33-53.1-.45-4,21.53-3.18,22.28-12.78,1.04-13.26,9.65,27.75,47.99,37.66,17.33,4.48,39.98-5.16,50.07-20.79,16.86-26.11,12.87-59.38-20.15-75.7-15.71-7.76-41.22-20.95-53.95-32.06C13.93,152.44,5.21,130.46,7.11,93.1,9.47,46.95,34.66,13.64,86.88,8.05c19.06-2.05,33.74,4.79,48.14,15.25,25.1,18.23,33.67,53.86,26.92,51.49-6.91-2.44-10.11,18.06-16.91,14.65-10.62-5.31-13.59-29.78-35.98-45.65-15.33-10.86-40.05-1.67-52.24,13.58-19.43,24.34-22.74,56.31-3.1,80.14,14.26,17.31,32.54,31.48,59.87,45.09,35.96,17.89,57.59,53.94,56.12,90.08Z"/>
  <path class="cls-4" d="M688.52,17.4c-1.85-3.09-5.62-5.94-10.17-6.32-11.24-.91-22.1,17.91-12.87,32.92,1.88,3.06,5.91,4.74,9.83,5,11.7.79,21.83-17.16,13.22-31.6M678.7,24.45c-6.43-.95-13.94,14.51-4.54,3.49.92-1.09,1.64.97,2.92,1.08,1.09.09,2.68-.64,3.56.48,8.73,11.08,3.8-4.21-1.94-5.05"/>
  <path class="cls-4" d="M774.87,17.4c-1.85-3.09-5.62-5.94-10.17-6.32-11.24-.91-22.1,17.91-12.87,32.92,1.88,3.06,5.91,4.74,9.83,5,11.7.79,21.83-17.16,13.22-31.6M765.05,24.45c-6.43-.95-13.94,14.51-4.54,3.49.92-1.09,1.64.97,2.92,1.08,1.09.09,2.68-.64,3.56.48,8.73,11.08,3.8-4.21-1.94-5.05"/>
</svg>