<?xml version="1.0" encoding="UTF-8"?>
<svg id="Layer_1" data-name="Layer 1" xmlns="http://www.w3.org/2000/svg" viewBox="0 0 621.4 238.02">
  <defs>
    <style>
      .cls-1 {
        fill: #443850;
      }
    </style>
  </defs>
  <g>
    <path class="cls-1" d="M47.21,146.89c-30.4-1.4-44.4-17.4-44.4-30.6,0-9.8,7.4-18,20.2-17.4,2.8,32,19.4,42,32.4,42,11,0,19.8-9.2,19.8-20.6,0-32.2-70.4-33.6-70.4-79C4.81,18.09,24.21,1.49,50.61,1.49s39.2,15.4,39.2,28.8c0,8.8-5.4,17-16.8,19.6h-1.2c-1.4-28.4-18.2-41.8-31.4-41.8-9,0-16.6,6.2-16.6,18.4,0,28.4,69.4,33,69.4,77,0,29-23.2,44.4-46,43.4Z"/>
    <path class="cls-1" d="M227,146.49l-76.4-110.4v35c0,41.6,2.6,60.2,13.8,71.8l-.2,1.6h-32.6l-.2-1.6c11.6-11.8,13.6-30.2,13.6-72,0-39.4-3-57.8-12-64.8l-.2-1.6h20.8c6.6.6,13,3.2,19.6,13l49.2,72.2c0-43.8.8-70.2-14-83.6v-1.6h33.2l.2,1.6c-11.8,12.8-13.8,37.4-13.8,81.2v59.2h-1Z"/>
    <path class="cls-1" d="M333.61,146.89c-28.6,0-55.4-22.4-55.4-71.4S309.01,1.49,340.01,1.49c29.2,0,57.4,22.6,57.4,70s-32.4,75.4-63.8,75.4ZM351.21,137.49c12.4,0,21.8-12,21.8-39.4,0-51.4-27.8-87-48.8-87-12.4,0-21.6,12.4-21.6,41.2,0,51.2,27.6,85.2,48.6,85.2Z"/>
    <path class="cls-1" d="M436.61,144.49l-.2-1.6c12.4-6.2,12.2-43.4,11.8-72.6s.2-55-11.8-64l.2-1.8,43.6-.2c20.4,0,41,9.4,41,32.4,0,14.6-10.4,26.2-22.2,30,18.4,2.2,33.4,16.8,33.4,39,0,26.8-17.6,39.2-45.4,39.2l-50.4-.4ZM495.01,39.09c0-14.6-6.6-29.4-22-28.8l-1,57.6c15.4-2.8,23-12.8,23-28.8ZM505.01,103.69c0-11.2-3-26.8-20.4-32-4.2.6-8.2.8-12.6.8l.6,54c.2,5.6,2,11.6,9.2,11.6,9.4,0,23.2-10.4,23.2-34.4Z"/>
    <path class="cls-1" d="M571.01,142.89c11.4-7.4,12-35.4,12-61.8v-9.2c0-36-2-59.2-12-65.8l.2-1.6h46l.2,1.6c-9.2,6.6-11.8,24.2-11.8,65.2,0,33.2.2,64.6,11.8,71.6l-.2,1.6h-46l-.2-1.6Z"/>
  </g>
  <g>
    <path class="cls-1" d="M173.03,223.2c.04.18.07.55.07,1.09l-.07.05c.04.36.02.73-.07,1.09.04.11.04.24,0,.38-.05.22-.14.49-.28.82,0,.11-.02.18-.07.22-.09.29-.18.53-.28.71-.05.07-.09.15-.14.22l-.07.05c-.09.25-.25.51-.48.77v.05c-.09.11-.18.22-.28.33-.14.18-.25.31-.34.38-.09.18-.28.36-.55.55,0,.04-.02.07-.07.11-.09.07-.23.15-.42.22-.46.25-.94.44-1.45.55l-.07.05c-.55.18-1.01.29-1.38.33-.09.04-.16.05-.21.05-.28.04-.51.05-.69.05-.14.04-.3.05-.48.05-.23.04-.44.04-.62,0-.05,0-.12.02-.21.05-.23,0-.55-.04-.97-.11-.05-.04-.09-.05-.14-.05-.46-.07-.85-.18-1.17-.33-.14-.07-.25-.13-.35-.16.09,0,.14.02.14.05l-.07-.05c-.32-.11-.64-.27-.97-.49-.37-.15-.71-.38-1.04-.71-.14-.07-.25-.16-.35-.27-.09-.07-.18-.15-.28-.22v-.05c-.23-.15-.41-.33-.55-.55h-.07c-.09-.11-.18-.25-.28-.44-.09-.18-.16-.31-.21-.38-.46-.69-.74-1.2-.83-1.53-.05-.15-.09-.4-.14-.77-.05-.11-.1-.27-.17-.49s-.1-.38-.1-.49c-.05-.11-.09-.57-.14-1.37-.14-.91-.23-1.4-.28-1.48v-.38c-.05-.33-.07-.6-.07-.82v-.98c-.05-.4-.09-.71-.14-.93,0-.25-.02-1.08-.07-2.46,0-.77.02-1.46.07-2.08v-.27.05c0-.66.02-1.33.07-2.02,0-.11.02-.24.07-.38-.05-.15-.06-.34-.04-.57s.04-.41.04-.52c0-.15.02-.31.07-.49v-.16.11c.05-.4.07-.67.07-.82.05-.25.08-.55.1-.88.02-.33.05-.58.07-.77.02-.18.08-.53.17-1.04.05-.29.09-.51.14-.66,0-.29.01-.55.04-.77.02-.22.08-.47.17-.77.04-.18.12-.38.21-.6v-.33c.18-.58.42-1.33.69-2.24.18-.44.35-.77.48-.98.18-.29.46-.66.83-1.09v-.05l.14-.16c.09-.04.21-.11.34-.22.14-.18.35-.35.62-.49.18-.15.44-.31.76-.49l.14-.05s.09-.02.14-.05v-.05c.51-.22.99-.38,1.45-.49.51-.18.97-.27,1.38-.27h.21c.46-.11.97-.11,1.52,0,.28.04.51.07.69.11.05,0,.23.04.55.11.09,0,.21.04.35.11.09.04.21.07.35.11.23.07.44.16.62.27.46.15.92.38,1.38.71.28.22.48.4.62.55l.07.05c.09.11.18.27.28.49.18.18.32.42.41.71.09.11.14.24.14.38l.07.22c.14.44.21.78.21,1.04v.27s.07.09.07.16v.22c.09.4.11.8.07,1.2v.6c.05.07.05.15,0,.22h-.14v.05h-.14s-.07.02-.07.05h-.14c-.09.04-.19.05-.28.05h-.34s-.12.02-.21.05c-.51.15-1.11.15-1.8,0-.05,0-.12-.02-.21-.05h-.21s-.07-.02-.07-.05v-.05s-.07.04-.07,0l-.07-.05c-.09-.22-.12-.4-.07-.55v-.88s-.01-.11-.03-.22c-.02-.11-.06-.25-.1-.44-.05-.18-.09-.35-.14-.49v-.05c-.05-.11-.18-.31-.41-.6-.14-.18-.23-.29-.28-.33-.14-.07-.39-.18-.76-.33-.55-.07-1.1-.09-1.66-.05-.28.07-.53.15-.76.22-.09.04-.21.09-.35.16-.32.18-.53.36-.62.55-.28.36-.42.6-.42.71,0-.04-.01-.02-.03.05-.02.07-.05.17-.07.3-.02.13-.06.23-.1.3-.05.15-.08.25-.1.3-.02.05-.03.1-.03.14-.28,1.2-.53,2.28-.76,3.23,0,.15-.02.36-.07.66s-.07.49-.07.6c-.23,2.99-.35,4.79-.35,5.41-.14,2.15-.15,4.52-.03,7.11.11,2.59.52,4.76,1.21,6.51.37.66.76,1.06,1.17,1.2.05.04.21.1.48.19.28.09.48.14.62.14.46.04.76.07.9.11,0,.04.02.05.07.05.09-.04.16-.05.21-.05.14-.04.3-.07.48-.11.64-.29.99-.44,1.04-.44.23-.18.39-.36.48-.55.18-.22.32-.53.41-.93.04-.07.09-.21.14-.41.04-.2.09-.36.14-.46.14-.58.14-1.17,0-1.75l.07-.05h.07-.07.41c.23-.04.51-.04.83,0h.07l.07.05h.48c.18-.04.39-.05.62-.05h.34c.37-.04.64-.04.83,0h.14s.07.02.07.05v-.05h.14l.07.05v.05ZM170.13,203.13c-.09.15-.21.22-.35.22s-.16-.05-.07-.16c.6-.8.69-1.64.28-2.52-.32-.66-.88-1.23-1.66-1.72-.78-.49-1.66-.83-2.62-1.01s-1.8-.15-2.49.11c-.41.15-.74.33-.97.55-.28.29-.48.64-.62,1.04l-.42.11c.46-.84,1.18-1.5,2.17-1.97s2.06-.69,3.21-.66l-.28.38c-.28-.04-.53-.05-.76-.05-.55,0-1.06.05-1.52.16-.05,0-.09.02-.14.05h-.07s-.02.05-.07.05c-.14.04-.25.09-.35.16-.05,0-.08,0-.1.03-.02.02-.06.03-.1.03,0,.04-.02.05-.07.05-.09.07-.21.15-.34.22l-.07.05h-.07s-.07.07-.07.11c-.14.07-.25.15-.35.22,0,.04-.02.07-.07.11s-.08.06-.1.08c-.02.02-.03.05-.03.08-.09.07-.19.16-.28.27-.18.18-.35.38-.48.6-.18.18-.35.4-.48.66-.55.95-1.04,2.1-1.45,3.45-.37,1.24-.65,2.64-.83,4.21-.18,1.42-.28,2.93-.28,4.54s.07,3.1.21,4.59c.18,1.5.44,2.9.76,4.21.37,1.35.78,2.52,1.24,3.5.51,1.06,1.06,1.86,1.66,2.41.32.29.64.53.97.71.14.07.3.13.48.16.09.04.18.05.28.05h.21c.23.04.21.15-.07.33-.05.04-.09.05-.14.05-.23,0-.44-.02-.62-.05-.69-.18-1.34-.64-1.93-1.37-.6-.69-1.13-1.6-1.59-2.73-.46-1.09-.85-2.35-1.17-3.77-.28-1.39-.48-2.88-.62-4.48-.14-1.53-.18-3.08-.14-4.65.05-1.64.18-3.17.42-4.59.28-1.53.64-2.9,1.1-4.1.46-1.31,1.01-2.39,1.66-3.23.74-.98,1.59-1.68,2.56-2.08.97-.47,2.03-.62,3.18-.44.18.04.14.15-.14.33-.05.04-.09.05-.14.05-1.1-.04-2.07.15-2.9.55-.83.36-1.47.91-1.93,1.64-.05.15-.14.22-.28.22-.05,0-.08,0-.1-.03-.02-.02-.04-.05-.04-.08.37-1.06,1.13-1.77,2.28-2.13.97-.25,1.93-.27,2.9-.05s1.84.58,2.62,1.09c.83.58,1.38,1.24,1.66,1.97.23.84.07,1.66-.48,2.46ZM165.71,196.79s-.13.08-.24.14-.2.08-.24.08c-.14.07-.3.13-.48.16-.05.04-.12.07-.21.11h-.07.07s.09-.07.14-.11l-.07.05c-.23.15-.48.29-.76.44-1.57,1.09-2.53,2.59-2.9,4.48l-.55.22c.23-.22.56-.53,1-.93.44-.4.75-.69.93-.88l.07-.05c.09-.04.16-.05.21-.05l.14-.11h.07c-.14.15-.44.42-.9.82-.46.4-.78.73-.97.98h-.07s-.08.06-.1.08c-.02.02-.06.03-.1.03-.09.04-.16.07-.21.11h-.07c.09-.51.25-1,.48-1.48.41-.95,1.01-1.77,1.79-2.46.41-.36.85-.67,1.31-.93.64-.33,1.22-.57,1.73-.71ZM171.1,202.86v-.05s-.02.05-.07.05-.08,0-.1.03c-.02.02-.06.05-.1.08l-.14.05-.14.05c.04-.07.07-.16.07-.27.09-.69-.07-1.4-.48-2.13-.37-.69-.91-1.32-1.62-1.89-.71-.57-1.48-.98-2.31-1.23-.88-.29-1.73-.36-2.56-.22-.18.04-.39.09-.62.16-.05.04-.09.05-.14.05l-.07.05.07-.05.21-.11c-.14.07-.23.13-.28.16-.41.25-.78.57-1.11.93l-.48.22c.18-.11.51-.27.97-.49.28-.15.58-.25.9-.33.83-.25,1.93-.4,3.32-.44h1.31c.18,0,.35-.02.48-.05h.21s-.09.02-.14.05c.05-.04.09-.05.14-.05l-.28.11c-.18.07-.33.12-.45.14-.12.02-.27.03-.45.03-1.47.04-2.39.07-2.76.11-.6.07-1.13.16-1.59.27-.28.07-.53.15-.76.22-.09.04-.16.05-.21.05,0,.04-.02.05-.07.05l.28-.11h-.07c-.09.07-.21.15-.35.22l-.28.11-.14.05-.07.05c.05-.07.11-.16.21-.27.37-.33.76-.6,1.17-.82.6-.29,1.1-.47,1.52-.55.83-.18,1.7-.13,2.62.16.83.29,1.61.74,2.35,1.34.74.6,1.29,1.27,1.66,2,.37.77.48,1.51.35,2.24ZM170.48,203.02c0,.11-.09.2-.28.27-.14.07-.21.05-.21-.05,0-.66-.23-1.37-.69-2.13-.42-.69-.92-1.29-1.52-1.8-.65-.58-1.29-.98-1.93-1.2-.74-.25-1.41-.27-2-.05h-.07s-.07.02-.07.05h-.07l-.07.05s-.09.05-.14.05c-.05.04-.09.07-.14.11h-.07v.05c-.09.04-.18.09-.28.16v.05l-.07.05s-.07.07-.07.11c-.09.07-.16.15-.21.22-.14.15-.28.35-.42.6-.09.11-.21.16-.34.16-.05.04-.08.04-.1,0-.02-.04-.04-.07-.04-.11.23-.66.6-1.17,1.11-1.53.41-.33.9-.51,1.45-.55.51-.04,1.04.02,1.59.16,1.06.29,1.98.84,2.76,1.64,0,.04-.02.09-.07.16-.05.07-.12.13-.21.16-.09.04-.16.04-.21,0-.37-.4-.81-.75-1.31-1.04-.97-.58-1.91-.82-2.83-.71-.09,0-.18.02-.28.05-.05,0-.12.02-.21.05h-.07c-.09.04-.16.07-.21.11l-.07.05-.14.05-.07.05-.07.05v.05h-.07s-.09.07-.14.11c-.05.07-.09.16-.14.27-.14.18-.25.42-.34.71l-.41.05c.6-1.02,1.38-1.68,2.35-1.97,1.38-.4,2.79.09,4.21,1.48.64.58,1.15,1.23,1.52,1.94.37.71.58,1.38.62,2ZM164.54,235.39h.14-.14ZM171.24,201.49l-.07-.05.07.05Z"/>
    <path class="cls-1" d="M235.73,214.5v.93c0,.33.02.71.07,1.15.04.44.07.77.07.98.05,1.06.02,2.04-.07,2.95,0,.66-.07,1.33-.21,2.02v.38c-.05.84-.18,1.53-.41,2.08-.14.44-.3.8-.48,1.09-.09.15-.17.32-.24.52s-.16.4-.28.6-.33.52-.66.96c-.09.07-.21.15-.34.22-.18.22-.35.4-.48.55-.05.07-.14.13-.28.16t0,0c-.37.44-.62.69-.76.77s-.25.15-.34.22c-.05.04-.09.05-.14.05v.05-.05c-.05.07-.12.11-.21.11l-.07.05s-.12.07-.21.11h.07c-.19.11-.32.16-.41.16h.07l-.14.05c-.41.18-.81.25-1.17.22-.74.11-1.73.15-2.97.14-1.24-.02-2.19-.12-2.83-.3-.09-.04-.23-.09-.41-.16-.37.25-.78.2-1.24-.16-.09-.07-.34-.38-.76-.93-.6-.33-1.01-.66-1.24-.98-.05,0-.09-.04-.14-.11-.37-.29-.76-.75-1.17-1.37-.46-.77-.76-1.31-.9-1.64-.14-.33-.25-.89-.34-1.7,0-.29.02-.58.07-.88v-1.15c0-.07-.01-.22-.04-.44s-.03-.46-.03-.71v-2.41c-.09-.47-.12-1.39-.07-2.73-.09-1.68-.12-3.39-.07-5.14v-.05c-.05-.4-.07-.93-.07-1.59v.27c-.09-.84-.09-1.62,0-2.35,0-.36.01-.69.03-.98s.07-.65.14-1.07c.07-.42.13-.81.17-1.18.32-1.2.71-2.24,1.17-3.12.05-.04.08-.09.1-.16.02-.07.06-.13.1-.16.32-.8,1.01-1.5,2.07-2.08.23-.11.48-.24.76-.38.05,0,.1-.02.17-.05s.13-.05.17-.05c.14-.11.28-.18.41-.22h.07s.08-.05.1-.05h.07s.06-.02.1-.05c.09-.04.16-.05.21-.05.37-.18.77-.29,1.21-.33.44-.04.96-.05,1.55-.03.6.02,1.01.03,1.24.03,1.2-.07,2.3.04,3.31.33.14.15.3.25.48.33.04.04.11.08.21.14.09.05.18.1.28.14.23.15.58.36,1.04.63.46.27.8.48,1.04.63.09,0,.14,0,.14.03s.02.05.07.08l.48.33.21.33c.09.11.21.29.34.55.05.04.07.07.07.11v-.05l-.07-.05c.23.22.42.49.55.82l-.07-.11.14.16s.02.09.07.16c.04.07.18.44.41,1.09.14.44.21.93.21,1.48l.07.77c.32,2.15.37,3.48.14,3.99,0,.04-.02.09-.07.16.09.98.13,1.72.1,2.21s-.06,1.2-.1,2.13c-.05.93-.07,1.47-.07,1.61ZM216.95,209.97s-.02-.05-.07-.05l.07.16v-.11ZM216.95,210.07v.11-.11ZM231.38,215.98c.04-.69.07-2.33.07-4.92,0-.15-.01-.37-.03-.68-.02-.31-.04-.56-.04-.74v-.11c-.05-.33-.08-1.12-.1-2.38-.02-1.26-.04-2.03-.04-2.32v-.71s-.02-.09-.07-.16v-.44c-.32-.55-.53-.93-.62-1.15v-.05c-.14-.11-.23-.18-.28-.22,0-.04-.02-.05-.07-.05l-.07-.05c-.51-.22-.78-.36-.83-.44-.09-.04-.3-.16-.62-.38s-.71-.4-1.17-.55l-.48-.11c-.41-.11-1.08-.13-2-.05-.05,0-.12,0-.21.03-.09.02-.16.03-.21.03-1.2.8-2.05,1.66-2.56,2.57-.28,3.46-.48,5.58-.62,6.34v.55c.28,1.68.35,3.03.21,4.05,0,.15-.05.29-.14.44.14.51.21.88.21,1.09.28,2.11.46,5.2.55,9.24.37.66.81,1.22,1.31,1.7.32.11.71.15,1.17.11.46-.04.87-.02,1.24.05h.69c1.15-.36,1.96-.67,2.42-.93.32-.18.48-.29.48-.33.23-.22.44-.46.62-.71h.07v-.05c.05-.07.07-.13.07-.16.09-.55.2-.98.31-1.31.11-.33.2-.71.24-1.15.05-.4.13-1.32.24-2.76s.2-2.52.24-3.25Z"/>
    <path class="cls-1" d="M296.29,197.28v.49c0,.66-.02,1.2-.07,1.64v.44c-.09.11-.16.16-.21.16-.09.04-.2.05-.31.05h-.24c-.18.04-.45.07-.79.11s-.54.05-.59.05c-.78.07-1.74.12-2.87.14-1.13.02-2.18.06-3.14.14-.69.04-1.39.06-2.11.08-.71.02-1.16.03-1.35.03.05.62.05,1.08,0,1.37,0,.4-.02.95-.07,1.64v.93c.05.77.07,1.29.07,1.59.05.66.11,1.35.21,2.08-.05,0-.07.05-.07.16v1.37c0,.22.05.93.14,2.13h.21c.55-.04.97-.07,1.24-.11h.55c.55,0,1.43,0,2.62-.03s2.09-.03,2.69-.03c1.24-.07,2.05-.09,2.42-.05.04.04.09.09.14.16-.05-.07-.05-.05,0,.05,0,.04.02.13.07.27.14.29.21.51.21.66,0,.44-.05.95-.14,1.53,0,.22-.05.44-.14.66v.05h-.34c-.88.04-2.49.07-4.83.11-.18,0-.46.02-.83.05-1.2.07-2.14.13-2.83.16h-1.04c0,.88.02,1.55.07,2.02v1.09c0,.4.02.88.07,1.42-.05.55-.07,1.24-.07,2.08-.05.07-.07.2-.07.38.09.22.13.64.1,1.26s-.03,1.02-.03,1.2.09.93.28,2.24v1.48l.07.05v2.3c-.41.04-.64.05-.69.05h-.21s.13,0,.24-.03c.12-.02.2-.03.24-.03h-.35.48-.28c-.18.04-.39.04-.62,0h-1.24c-.28.04-.69.05-1.24.05h-.07c-.14.04-.23.05-.28.05h-.07c-.14,0-.28-.02-.41-.05h-.48s-.01-.08-.03-.14c-.02-.05-.03-.09-.03-.11v-.08h-.07c-.05-.11-.07-.18-.07-.22v-.33c-.05-.33-.05-.77,0-1.31,0-.55.02-1.13.07-1.75-.37-5.25-.58-10.25-.62-14.98.05-1.68.07-3.17.07-4.48v-.22c.09-3.68.11-7.02.07-10.01,0-.04-.02-.13-.07-.27v-.33s.09-.02.14-.05c7.04-.07,12.32-.13,15.82-.16.04,0,.11-.02.21-.05l.14.05v.05h.07c.04.07.11.22.21.44,0,.11.02.2.07.27ZM285.31,228.67v2.24c-.41.04-.64.05-.69.05h-.21s.13,0,.24-.03c.12-.02.2-.03.24-.03h-.35.48-.28c-.18.04-.39.04-.62,0h-1.24c-.28.04-.92.05-1.93.05h-.62s-.07-.11-.07-.22c.09-.15.11-.29.07-.44-.46-5.76-.71-11.85-.76-18.27.05-1.68.07-3.17.07-4.48,0-.04-.01-.07-.04-.11-.02-.04-.04-.07-.04-.11.14-3.68.16-7.02.07-10.01,0-.04-.02-.13-.07-.27.05-.11.07-.18.07-.22v-.11s.09-.02.14-.05h2.28c1.01,0,1.77-.02,2.28-.05.04.07.09.11.14.11l.07.05v1.75c.14,1.46.16,2.61.07,3.45,0,.4-.02.95-.07,1.64v.93c.05.77.07,1.29.07,1.59.05.66.11,1.33.21,2.02-.05.04-.07.11-.07.22v1.37c0,.33.04.85.1,1.56.07.71.1,1.25.1,1.61v.27c-.14,1.31-.14,2.72,0,4.21v1.09c0,.4.02.88.07,1.42-.05.55-.07,1.24-.07,2.08-.05.07-.07.17-.07.3v.63c-.09.29-.14.64-.14,1.04.05.8.09,1.51.14,2.13.04.04.07.07.07.11,0,.15.07.27.21.38-.05.11-.07.18-.07.22v.27h.14v1.48l.07.05v.05ZM294.64,200.01h-.07.07ZM294.64,200.01h-.07.07ZM295.4,199.52v.05-.05ZM295.6,199.41v-.05.05Z"/>
    <path class="cls-1" d="M357.82,197.28v.49c0,.66-.02,1.2-.07,1.64v.44c-.09.11-.16.16-.21.16-.09.04-.2.05-.31.05h-.24c-.18.04-.45.07-.79.11s-.54.05-.59.05c-.78.07-1.74.12-2.87.14-1.13.02-2.18.06-3.14.14-.69.04-1.39.06-2.11.08s-1.16.03-1.35.03c.04.62.04,1.08,0,1.37,0,.4-.02.95-.07,1.64v.93c.04.77.07,1.29.07,1.59.04.66.12,1.35.21,2.08-.05,0-.07.05-.07.16v1.37c0,.22.04.93.14,2.13h.21c.55-.04.97-.07,1.24-.11h.55c.55,0,1.43,0,2.62-.03,1.2-.02,2.09-.03,2.69-.03,1.24-.07,2.05-.09,2.42-.05.05.04.09.09.14.16-.05-.07-.05-.05,0,.05,0,.04.02.13.07.27.14.29.21.51.21.66,0,.44-.05.95-.14,1.53,0,.22-.05.44-.14.66v.05h-.35c-.88.04-2.49.07-4.83.11-.18,0-.46.02-.83.05-1.2.07-2.14.13-2.83.16h-1.04c0,.88.02,1.55.07,2.02v1.09c0,.4.02.88.07,1.42-.05.55-.07,1.24-.07,2.08-.05.07-.07.2-.07.38.09.22.13.64.1,1.26-.02.62-.03,1.02-.03,1.2s.09.93.28,2.24v1.48l.07.05v2.3c-.42.04-.65.05-.69.05h-.21s.13,0,.24-.03c.11-.02.2-.03.24-.03h-.34.48-.28c-.19.04-.39.04-.62,0h-1.24c-.28.04-.69.05-1.24.05h-.07c-.14.04-.23.05-.28.05h-.07c-.14,0-.28-.02-.42-.05h-.48s-.01-.08-.04-.14-.03-.09-.03-.11v-.08h-.07c-.05-.11-.07-.18-.07-.22v-.33c-.05-.33-.05-.77,0-1.31,0-.55.02-1.13.07-1.75-.37-5.25-.58-10.25-.62-14.98.04-1.68.07-3.17.07-4.48v-.22c.09-3.68.12-7.02.07-10.01,0-.04-.02-.13-.07-.27v-.33s.09-.02.14-.05c7.04-.07,12.32-.13,15.81-.16.05,0,.12-.02.21-.05l.14.05v.05h.07c.05.07.11.22.21.44,0,.11.02.2.07.27ZM346.84,228.67v2.24c-.42.04-.65.05-.69.05h-.21s.13,0,.24-.03c.11-.02.2-.03.24-.03h-.34.48-.28c-.19.04-.39.04-.62,0h-1.24c-.28.04-.92.05-1.93.05h-.62s-.07-.11-.07-.22c.09-.15.11-.29.07-.44-.46-5.76-.71-11.85-.76-18.27.04-1.68.07-3.17.07-4.48,0-.04-.01-.07-.03-.11-.02-.04-.03-.07-.03-.11.14-3.68.16-7.02.07-10.01,0-.04-.02-.13-.07-.27.04-.11.07-.18.07-.22v-.11s.09-.02.14-.05h2.28c1.01,0,1.77-.02,2.28-.05.04.07.09.11.14.11l.07.05v1.75c.14,1.46.16,2.61.07,3.45,0,.4-.02.95-.07,1.64v.93c.04.77.07,1.29.07,1.59.04.66.12,1.33.21,2.02-.05.04-.07.11-.07.22v1.37c0,.33.03.85.1,1.56.07.71.1,1.25.1,1.61v.27c-.14,1.31-.14,2.72,0,4.21v1.09c0,.4.02.88.07,1.42-.05.55-.07,1.24-.07,2.08-.05.07-.07.17-.07.3v.63c-.09.29-.14.64-.14,1.04.04.8.09,1.51.14,2.13.05.04.07.07.07.11,0,.15.07.27.21.38-.05.11-.07.18-.07.22v.27h.14v1.48l.07.05v.05ZM356.16,200.01h-.07.07ZM356.16,200.01h-.07.07ZM356.92,199.52v.05-.05ZM357.13,199.41v-.05.05Z"/>
    <path class="cls-1" d="M419.62,226.81v3.72l-.07.05c-.09.04-.17.04-.24.03-.07-.02-.2,0-.38.03-.41,0-.76-.02-1.04-.05h-.07.07c-.23.04-.51.04-.83,0h-1.38c-.14.04-.39.05-.76.05h-.62c-1.75.18-3.04.25-3.87.22h-1.38c-.37,0-.92.04-1.66.11h-.28c.09,0,.18,0,.28-.03.09-.02.16-.03.21-.03h-.28.41-.21c-.18.04-.41.04-.69,0h-1.17c-.32.04-.76.05-1.31.05-.18.04-.3.05-.34.05h-.07c-.09,0-.21-.02-.35-.05h-.55v-.14c0-.05-.02-.08-.07-.08l.07-.05s-.07-.02-.07-.05c-.05-.11-.07-.18-.07-.22v-.22l-.07-.11c0-.33.02-.77.07-1.31v-1.75c-.32-5.25-.51-10.25-.55-14.98.04-1.68.04-3.17,0-4.48v-.22c.14-3.68.16-7.02.07-10.01,0-.04-.02-.13-.07-.27v-.33c.09,0,.16-.02.21-.05,7-.07,12.27-.13,15.82-.16.04,0,.11-.02.21-.05.05.04.09.05.14.05v.05h.07c0,.07.05.22.14.44.05.11.07.2.07.27v2.57c-.14.11-.23.16-.28.16-.05.04-.21.05-.48.05-.19.04-.45.07-.79.11s-.56.05-.66.05c-.74.07-1.68.12-2.83.14s-2.19.06-3.11.14c-.74.04-1.46.06-2.18.08s-1.14.03-1.28.03v1.37c0,.4-.02.95-.07,1.64v2.52c.09.66.16,1.33.21,2.02v.22c-.05.22-.07.49-.07.82v.55c.05.22.11.93.21,2.13h.21c.55-.07.94-.11,1.17-.11h.62c.55,0,1.43,0,2.62-.03,1.2-.02,2.07-.03,2.62-.03.04,0,.38-.02,1-.05s1.12-.04,1.48,0c0,.04.02.09.07.16-.05-.07-.05-.05,0,.05.04.04.09.13.14.27.09.29.14.51.14.66,0,.44-.02.95-.07,1.53-.05.22-.09.44-.14.66v.05h-.35c-.92.04-2.53.07-4.83.11-.18,0-.48.02-.9.05-1.15.07-2.07.13-2.76.16h-1.04c-.05.88-.05,1.55,0,2.02,0,.04.02.13.07.27v2.24c0,.55-.02,1.24-.07,2.08v.38c.05.22.07.64.07,1.26v1.2c0,.18.07.93.21,2.24h.9c1.33-.11,2.05-.16,2.14-.16.18,0,.62.02,1.31.05,1.33-.07,2.69-.09,4.07-.05.37-.04.78-.04,1.24,0h.48s.14-.04.28,0c.18-.04.39-.05.62-.05h.21c.14-.04.28-.05.41-.05ZM419.62,226.81v3.72l-.07.05h-.62c-.41.04-.76.04-1.04,0h-.07.07c-.23.04-.51.04-.83,0h-1.38c-.14.04-.39.05-.76.05h-.62c-1.75.18-3.04.25-3.87.22h-1.38c-.37,0-.92.04-1.66.11h-.28c.09,0,.18,0,.28-.03.09-.02.16-.03.21-.03h-.28.41-.21c-.18.04-.41.04-.69,0h-1.17c-.32.04-.99.05-2,.05h-.62v-.14c0-.05-.02-.08-.07-.08.09-.15.14-.29.14-.44-.46-5.76-.71-11.85-.76-18.27.04-1.71.04-3.21,0-4.48v-.22c.14-3.68.16-7.02.07-10.01,0-.07-.02-.16-.07-.27v-.33c.09-.04.16-.05.21-.05h2.28c1.01,0,1.77-.02,2.28-.05l.07.11h.07s.02.05.07.05l-.07.11c.04.55.04,1.09,0,1.64.14,1.46.18,2.61.14,3.45,0,.4-.02.95-.07,1.64v2.52c.09.66.16,1.33.21,2.02v.22c-.05.22-.07.49-.07.82v.55c.05.33.09.85.14,1.56s.09,1.25.14,1.61v.27c-.14,1.31-.16,2.72-.07,4.21,0,.04.02.13.07.27v2.24c0,.55-.02,1.24-.07,2.08v.93c-.09.29-.14.64-.14,1.04,0,.8.04,1.51.14,2.13.05.04.07.07.07.11,0,.15.04.27.14.38,0,.11-.02.18-.07.22,0,.04.02.13.07.27h.97c1.33-.11,2.05-.16,2.14-.16.18,0,.62.02,1.31.05,1.33-.07,2.69-.09,4.07-.05.37-.04.78-.04,1.24,0h.48s.14-.04.28,0c.18-.04.39-.05.62-.05h.21c.14-.04.28-.05.41-.05ZM417.28,200.01h.07-.07ZM417.34,200.01h-.07.07ZM418.17,199.52l-.07.05.07-.05ZM418.31,199.36v.05s.02-.05.07-.05h-.07ZM418.31,229.27l.07-.05s-.07.02-.07.05ZM418.31,229.27l.07-.05s-.07.02-.07.05Z"/>
    <path class="cls-1" d="M481.15,226.81v3.72l-.07.05c-.09.04-.17.04-.24.03-.07-.02-.2,0-.38.03-.41,0-.76-.02-1.04-.05h-.07.07c-.23.04-.51.04-.83,0h-1.38c-.14.04-.39.05-.76.05h-.62c-1.75.18-3.04.25-3.87.22h-1.38c-.37,0-.92.04-1.66.11h-.28c.09,0,.18,0,.28-.03.09-.02.16-.03.21-.03h-.28.42-.21c-.18.04-.41.04-.69,0h-1.17c-.32.04-.76.05-1.31.05-.18.04-.3.05-.35.05h-.07c-.09,0-.21-.02-.35-.05h-.55v-.14c0-.05-.02-.08-.07-.08l.07-.05s-.07-.02-.07-.05c-.05-.11-.07-.18-.07-.22v-.22l-.07-.11c0-.33.02-.77.07-1.31v-1.75c-.32-5.25-.51-10.25-.55-14.98.05-1.68.05-3.17,0-4.48v-.22c.14-3.68.16-7.02.07-10.01,0-.04-.02-.13-.07-.27v-.33c.09,0,.16-.02.21-.05,7-.07,12.27-.13,15.81-.16.04,0,.12-.02.21-.05.05.04.09.05.14.05v.05h.07c0,.07.05.22.14.44.04.11.07.2.07.27v2.57c-.14.11-.23.16-.28.16-.05.04-.21.05-.48.05-.18.04-.45.07-.79.11-.35.04-.56.05-.66.05-.74.07-1.68.12-2.83.14-1.15.02-2.19.06-3.11.14-.74.04-1.46.06-2.18.08-.71.02-1.14.03-1.28.03v1.37c0,.4-.02.95-.07,1.64v2.52c.09.66.16,1.33.21,2.02v.22c-.05.22-.07.49-.07.82v.55c.05.22.12.93.21,2.13h.21c.55-.07.94-.11,1.17-.11h.62c.55,0,1.43,0,2.62-.03,1.2-.02,2.07-.03,2.62-.03.04,0,.38-.02,1-.05.62-.04,1.12-.04,1.48,0,0,.04.02.09.07.16-.05-.07-.05-.05,0,.05.05.04.09.13.14.27.09.29.14.51.14.66,0,.44-.02.95-.07,1.53-.05.22-.09.44-.14.66v.05h-.35c-.92.04-2.53.07-4.83.11-.19,0-.48.02-.9.05-1.15.07-2.07.13-2.76.16h-1.04c-.05.88-.05,1.55,0,2.02,0,.04.02.13.07.27v2.24c0,.55-.02,1.24-.07,2.08v.38c.05.22.07.64.07,1.26v1.2c0,.18.07.93.21,2.24h.9c1.33-.11,2.05-.16,2.14-.16.18,0,.62.02,1.31.05,1.33-.07,2.69-.09,4.08-.05.37-.04.78-.04,1.24,0h.48s.14-.04.28,0c.18-.04.39-.05.62-.05h.21c.14-.04.28-.05.41-.05ZM481.15,226.81v3.72l-.07.05h-.62c-.41.04-.76.04-1.04,0h-.07.07c-.23.04-.51.04-.83,0h-1.38c-.14.04-.39.05-.76.05h-.62c-1.75.18-3.04.25-3.87.22h-1.38c-.37,0-.92.04-1.66.11h-.28c.09,0,.18,0,.28-.03.09-.02.16-.03.21-.03h-.28.42-.21c-.18.04-.41.04-.69,0h-1.17c-.32.04-.99.05-2,.05h-.62v-.14c0-.05-.02-.08-.07-.08.09-.15.14-.29.14-.44-.46-5.76-.71-11.85-.76-18.27.05-1.71.05-3.21,0-4.48v-.22c.14-3.68.16-7.02.07-10.01,0-.07-.02-.16-.07-.27v-.33c.09-.04.16-.05.21-.05h2.28c1.01,0,1.77-.02,2.28-.05l.07.11h.07s.02.05.07.05l-.07.11c.04.55.04,1.09,0,1.64.14,1.46.18,2.61.14,3.45,0,.4-.02.95-.07,1.64v2.52c.09.66.16,1.33.21,2.02v.22c-.05.22-.07.49-.07.82v.55c.05.33.09.85.14,1.56.04.71.09,1.25.14,1.61v.27c-.14,1.31-.16,2.72-.07,4.21,0,.04.02.13.07.27v2.24c0,.55-.02,1.24-.07,2.08v.93c-.09.29-.14.64-.14,1.04,0,.8.05,1.51.14,2.13.05.04.07.07.07.11,0,.15.04.27.14.38,0,.11-.02.18-.07.22,0,.04.02.13.07.27h.97c1.33-.11,2.05-.16,2.14-.16.18,0,.62.02,1.31.05,1.33-.07,2.69-.09,4.08-.05.37-.04.78-.04,1.24,0h.48s.14-.04.28,0c.18-.04.39-.05.62-.05h.21c.14-.04.28-.05.41-.05ZM478.8,200.01h.07-.07ZM478.87,200.01h-.07.07ZM479.7,199.52l-.07.05.07-.05ZM479.84,199.36v.05s.02-.05.07-.05h-.07ZM479.84,229.27l.07-.05s-.07.02-.07.05ZM479.84,229.27l.07-.05s-.07.02-.07.05Z"/>
  </g>
</svg>